<?xml version="1.0" encoding="UTF-8" standalone="no"?>
<!-- Created with Inkscape (http://www.inkscape.org/) -->

<svg
   width="227.85141mm"
   height="120.26933mm"
   viewBox="0 0 227.85141 120.26933"
   version="1.1"
   id="svg1"
   xml:space="preserve"
   xmlns="http://www.w3.org/2000/svg"
   xmlns:svg="http://www.w3.org/2000/svg"><defs
     id="defs1" /><g
     id="layer1"
     transform="translate(-84.853504,198.29236)"><g
       id="g2367"
       transform="translate(0.39110798,147.44771)"><path
         style="fill:#efd89e"
         d="m 177.59445,-225.59871 c -2.11018,-0.29611 -1.14905,-1.98831 1.27312,-2.24148 5.02952,-0.52569 10.45507,-4.54383 13.9964,-10.3657 1.65025,-2.71295 2.98673,-5.51461 2.98673,-6.26103 0,-0.76019 -0.17324,-0.86169 -1.98437,-1.16268 -0.58208,-0.0967 -1.65365,-0.35302 -2.38125,-0.56952 -12.8576,-3.82573 -21.30644,-9.04136 -38.54028,-23.79162 -12.22331,-10.46181 -17.5177,-13.72658 -27.81027,-17.14912 -13.16,-4.37604 -28.613895,-4.46475 -39.779397,-0.22835 -1.308215,0.49636 -1.137961,-1.52775 0.244539,-2.90727 0.319683,-0.319 1.404706,-1.59259 2.411162,-2.8302 2.957919,-3.63729 6.971772,-7.84926 7.896141,-8.28588 3.105338,-1.46681 24.986105,-1.95189 33.883525,-0.75117 5.22758,0.70547 6.97901,1.01299 13.01125,2.2845 8.75212,1.84484 18.83557,1.4612 25.4,-0.96637 8.09285,-2.99279 14.94942,-7.65603 15.68985,-10.67088 0.45394,-1.84829 1.8254,-4.1588 3.14245,-5.29408 0.86363,-0.74444 0.93981,-0.94077 1.17267,-3.02211 0.74022,-6.61622 5.07223,-12.55306 11.01742,-15.09893 1.59487,-0.68296 1.5652,-0.59613 0.83303,-2.4381 -2.19279,-5.51663 3.72692,-10.5805 8.66466,-7.41196 2.39211,1.53501 3.37547,4.85006 2.20431,7.43105 -0.75774,1.66992 -0.75978,1.66682 2.01791,3.07339 5.83082,2.95262 8.94359,7.70642 10.01509,15.29496 0.13381,0.94767 0.4052,1.49199 1.08067,2.16746 1.3015,1.3015 2.71391,3.61807 3.01036,4.93743 0.26285,1.1699 0.84118,1.8161 1.62532,1.8161 0.54008,0 5.78867,1.62048 7.25959,2.24137 1.86103,0.78556 5.17683,2.5255 9.45354,4.96066 7.62842,4.34363 9.77112,4.58392 14.19996,1.59248 1.7991,-1.21519 2.8768,-2.05581 7.13441,-5.56496 13.51127,-11.13607 26.62032,-12.09894 38.04039,-2.79411 12.64851,10.30575 8.73416,30.99068 -6.73717,35.60173 -7.17285,2.13779 -14.39585,0.94304 -23.59426,-3.90271 -0.65484,-0.34498 -1.66687,-0.6328 -2.24895,-0.63961 -5.77168,-0.0675 -8.25381,-6.82958 -3.80135,-10.35599 2.69055,-2.13095 7.24174,-0.94638 8.73079,2.27242 0.9007,1.94701 9.00296,4.89914 13.4459,4.89914 13.14392,0 16.77329,-15.97314 4.93037,-21.69893 -10.48663,-5.07006 -22.08938,1.88088 -30.73456,18.41238 -4.54342,8.68801 -8.94444,14.79086 -15.05842,20.88134 -5.28527,5.26496 -6.21863,6.0104 -12.83461,10.2505 -4.40101,2.82056 -14.82401,6.87323 -21.23281,8.25575 -0.40018,0.0863 -0.72761,0.30577 -0.72761,0.48766 0,0.50034 1.5966,4.23046 2.01479,4.70713 0.20156,0.22974 0.36646,0.51413 0.36646,0.63198 0,0.55337 3.20735,4.94319 4.752,6.50395 3.08363,3.11579 5.74108,4.58851 9.5355,5.28441 2.47451,0.45383 3.34266,1.25562 2.3903,2.20758 -0.27814,0.27802 -54.44176,0.47731 -56.3653,0.20739 z"
         id="path2373" /><path
         style="fill:#eecd73"
         d="m 177.40466,-226.19839 c -0.56762,-0.56763 -0.0358,-0.9941 1.46862,-1.1777 6.3247,-0.77184 12.17336,-5.76358 16.20421,-13.83002 1.95009,-3.90248 1.89989,-4.25476 -0.68199,-4.78577 -9.75725,-2.00677 -20.71276,-7.62936 -30.90276,-15.85992 -4.8454,-3.91367 -6.97246,-5.66888 -9.31391,-7.68569 -9.65483,-8.31618 -13.99945,-11.44674 -19.84375,-14.29861 -5.52365,-2.6954 -9.25583,-4.03744 -15.47812,-5.56571 -9.35353,-2.29733 -21.453495,-2.02542 -30.511148,0.68566 -4.146455,1.24109 -4.229766,0.93536 -0.847632,-3.11051 7.790918,-9.31988 7.777802,-9.31063 14.21671,-10.03225 12.10086,-1.35617 27.38558,-0.49323 40.02852,2.25991 8.68437,1.89112 16.25546,1.92273 23.50524,0.0981 1.74294,-0.43866 3.35853,-0.89784 3.59021,-1.0204 0.23167,-0.12257 1.49278,-0.66765 2.80247,-1.2113 7.14049,-2.96402 12.82113,-7.469 12.83082,-10.17537 0.002,-0.68348 1.80543,-3.49095 2.90203,-4.5188 0.83442,-0.78211 1.05731,-1.20358 1.18933,-2.24896 0.69692,-5.51819 2.37839,-9.22723 5.53764,-12.21512 1.26415,-1.19558 4.11688,-3.22655 4.53207,-3.22655 0.5456,0 2.77373,-1.18389 2.77373,-1.47379 0,-0.19266 -0.29765,-0.91011 -0.66145,-1.59433 -1.13712,-2.13862 -0.89089,-4.25157 0.70761,-6.07215 4.32429,-4.9251 11.60828,0.18927 8.81507,6.1894 -0.81245,1.74522 -0.88958,1.63244 2.09677,3.06575 5.68153,2.72686 9.10133,7.65183 9.91099,14.27312 0.23574,1.92781 0.33507,2.167 1.3185,3.175 1.36735,1.4015 2.94793,4.03852 2.94793,4.91829 0,0.87977 0.68721,1.86037 1.30376,1.86037 2.80687,0 10.34267,3.20153 17.53426,7.44929 9.00721,5.32018 10.19783,5.13688 20.52807,-3.16024 10.05123,-8.07304 16.23766,-10.61989 23.9286,-9.85101 16.52461,1.65199 26.67141,17.08519 20.04283,30.48495 -5.92662,11.98076 -19.37745,14.75008 -34.14658,7.03028 -1.50777,-0.78811 -2.47369,-1.09985 -3.88936,-1.25525 -3.39807,-0.37301 -5.18714,-2.13394 -5.18033,-5.09884 0.0135,-5.87003 7.2488,-7.40504 9.98283,-2.11792 0.30095,0.58199 0.93522,1.10715 1.96499,1.62698 12.15713,6.1369 22.64041,3.31117 24.39946,-6.57679 1.82977,-10.28546 -11.49879,-17.90779 -21.98743,-12.57416 -5.68337,2.89008 -14.86424,13.43885 -17.40249,19.99538 -0.2183,0.56388 -1.22452,2.29435 -3.88765,6.68586 -3.83513,6.32416 -10.86864,14.03453 -17.20035,18.85561 -7.33235,5.58298 -14.59299,8.89727 -26.64009,12.16049 -1.89542,0.51342 -1.90927,0.67154 -0.34425,3.93232 4.18315,8.71574 9.44125,13.35151 16.79037,14.80313 1.20561,0.23814 1.4794,0.39015 1.4794,0.82139 0,0.63251 -55.78531,0.99426 -56.41375,0.36583 z"
         id="path2372" /><path
         style="fill:#ebc055"
         d="m 202.99445,-226.16735 c -16.47481,-0.0854 -25.53229,-0.22463 -25.53229,-0.39258 0,-0.14316 0.96739,-0.46087 2.14975,-0.70603 6.7085,-1.39096 11.64452,-5.75628 15.66106,-13.85035 0.97535,-1.96551 1.79327,-4.29661 1.58177,-4.50812 -0.05,-0.05 -1.5168,-0.41065 -3.25948,-0.80136 -12.13955,-2.72172 -22.39786,-8.83659 -39.69604,-23.66239 -11.60856,-9.94938 -16.8379,-13.33194 -26.04643,-16.84792 -12.5655,-4.79774 -26.38852,-5.56803 -38.918644,-2.16876 -4.561716,1.23754 -4.546155,1.2813 -1.01758,-2.86146 7.19928,-8.45239 7.668349,-8.7996 12.816434,-9.48684 11.64141,-1.55406 27.97032,-0.61458 42.20104,2.42804 7.28005,1.55652 13.86155,1.66204 20.59234,0.33014 0.77552,-0.15346 1.46732,-0.22173 1.53734,-0.15172 0.32841,0.32841 -3.62095,1.26395 -6.34314,1.50259 -1.67075,0.14646 -3.24401,0.34546 -3.49613,0.44221 -0.7551,0.28975 0.30046,0.88328 1.58464,0.89102 0.59065,0.004 1.55348,0.11728 2.13964,0.25271 10.2281,2.36331 31.86269,-2.09264 38.05985,-7.83897 1.07544,-0.99721 0.68071,-1.1512 -2.95943,-1.15457 -2.92203,-0.003 -6.88178,-0.32465 -11.57476,-0.94107 -1.26545,-0.16621 -1.4439,-0.10967 -3.30045,1.04569 -1.07947,0.67177 -2.09852,1.2214 -2.26456,1.2214 -0.16604,0 -0.6157,0.24684 -0.99924,0.54853 -0.38353,0.30169 -0.90561,0.49927 -1.16016,0.43905 -0.32619,-0.0772 -0.11133,-0.279 0.72781,-0.68372 1.82286,-0.87917 3.79752,-2.19192 5.4609,-3.63037 3.60393,-3.1166 3.4885,-2.98055 3.79938,-4.47806 0.3284,-1.58186 1.98734,-4.36045 2.99924,-5.02348 0.81925,-0.53679 1.09891,-1.30774 1.45172,-4.00207 0.87779,-6.70346 4.376,-11.04472 11.49947,-14.27079 1.4917,-0.67556 1.63784,-1.16776 0.71805,-2.41847 -1.3022,-1.77072 -1.32899,-5.08485 -0.0346,-4.27647 1.19972,0.74923 3.84325,-1.36982 3.20248,-2.5671 -0.7863,-1.46922 1.59671,-1.53534 3.69634,-0.10257 2.38405,1.62687 2.94048,3.94896 1.5882,6.62782 -0.99354,1.96819 -0.98915,1.975 2.28068,3.54437 4.37561,2.10008 7.43871,5.57936 8.96673,10.185 0.3621,1.09141 0.73737,2.81781 0.83394,3.83646 0.20845,2.19879 0.32309,2.45193 1.76976,3.90765 1.22727,1.23496 2.15225,2.89755 2.57974,4.63692 0.31779,1.29305 0.34967,1.31107 3.8244,2.16155 4.55455,1.11477 8.44062,2.93058 17.13525,8.00664 4.31615,2.51984 7.98387,3.08801 10.77829,1.66966 1.30156,-0.66062 6.89626,-4.67127 7.94249,-5.6937 2.26708,-2.21551 8.99076,-6.87959 10.97522,-7.6133 0.43656,-0.16141 1.74625,-0.65813 2.91041,-1.10382 4.4035,-1.68583 10.47276,-1.78424 15.04436,-0.24395 2.3067,0.77719 6.96042,3.07689 7.9398,3.92356 0.45559,0.39386 1.03249,0.82662 1.282,0.96168 0.97271,0.52656 4.65633,5.20286 5.55222,7.04845 2.36018,4.86214 2.47768,11.78729 0.27529,16.22483 -1.58514,3.19384 -1.90639,3.71871 -3.22688,5.27216 -4.59111,5.40106 -12.91016,7.92051 -20.52918,6.21734 -4.4314,-0.99061 -4.7195,-1.09669 -9.87372,-3.63546 -1.83526,-0.90398 -2.8644,-1.24618 -3.96875,-1.31962 -2.21772,-0.1475 -2.58331,-0.26609 -3.6163,-1.17306 -1.31726,-1.15657 -1.71113,-2.05846 -1.71113,-3.91819 0,-5.02607 6.35011,-6.66081 8.98511,-2.31307 0.83529,1.37823 1.0575,1.54963 3.42852,2.64467 6.20742,2.86686 11.22436,3.60811 15.49424,2.28928 9.7742,-3.01894 11.50909,-15.56623 2.92313,-21.14103 -9.90387,-6.4305 -20.91202,-2.1304 -30.23418,11.81034 -1.48272,2.21733 -4.30099,7.04916 -4.30099,7.37392 0,0.3231 -3.10381,5.42259 -4.98605,8.19197 -9.99347,14.70359 -23.18707,24.09822 -39.9722,28.46259 -5.02495,1.30656 -4.8093,0.9452 -2.93515,4.9184 4.16419,8.82807 11.15391,14.90547 17.14305,14.90547 0.90756,0 1.47419,0.67407 0.87693,1.04319 -0.17446,0.10783 -1.35267,0.18511 -2.61824,0.17174 -1.26558,-0.0134 -13.79058,-0.0838 -27.83334,-0.1566 z m -6.79834,-97.4079 c 2.37514,-1.21171 5.46327,-5.2573 5.47208,-7.16867 0.0106,-2.30933 -2.72143,-2.46712 -5.52144,-0.3189 -1.99433,1.53009 -3.45003,2.9725 -3.46329,3.43168 -0.004,0.14767 -0.22761,0.68345 -0.49632,1.19062 -1.76007,3.322 0.26986,4.77282 4.00897,2.86527 z m -29.84645,24.24409 c 0.88385,-0.40809 2.15594,-0.54282 1.45521,-0.15412 -0.21828,0.12108 -0.81359,0.28776 -1.32292,0.37039 l -0.92604,0.15023 z m 2.91042,-0.91953 c 0.0899,-0.14552 0.36485,-0.26276 0.61093,-0.26053 0.38557,0.003 0.39255,0.0395 0.0505,0.26053 -0.51815,0.33486 -0.86841,0.33486 -0.66146,0 z m 2.37071,-0.95104 c 0.56114,-0.41032 1.31566,-0.5066 1.0884,-0.13888 -0.0792,0.12815 -0.47092,0.29549 -0.87048,0.37187 -0.67905,0.12981 -0.69328,0.11459 -0.21792,-0.23299 z"
         id="path2371" /><path
         style="fill:#eebe53"
         d="m 178.25591,-226.41766 c -0.66683,-0.25274 -0.19972,-0.43102 2.11737,-0.80814 2.30757,-0.37556 6.54444,-2.60337 8.56107,-4.50154 0.92544,-0.87107 1.78704,-1.58376 1.91468,-1.58376 0.12764,0 0.39967,-0.40111 0.60451,-0.89137 0.20484,-0.49025 0.68642,-1.23439 1.07017,-1.65364 0.38375,-0.41926 0.90236,-1.17865 1.15247,-1.68755 0.54689,-1.11277 1.30079,-1.36606 1.42649,-0.47926 0.12001,0.84665 0.59779,0.76685 0.69946,-0.11682 0.0598,-0.51972 -0.0347,-0.72761 -0.33073,-0.72761 -0.65816,0 -0.50182,-1.2907 0.28058,-2.31649 0.58667,-0.76916 0.81355,-0.88752 1.45521,-0.75919 0.56232,0.11246 0.76018,0.0505 0.76018,-0.23823 0,-0.21588 -0.24016,-0.39026 -0.53747,-0.39026 -0.7337,0 -0.93006,-0.66622 -0.5773,-1.95873 0.36884,-1.35147 0.10481,-1.6047 -1.92148,-1.84285 -2.75912,-0.32428 -11.65613,-3.32656 -13.89708,-4.68954 -0.21828,-0.13277 -0.635,-0.34862 -0.92604,-0.47967 -2.96077,-1.33324 -9.77646,-5.66054 -13.75834,-8.73522 -2.39619,-1.85026 -3.28932,-2.52744 -5.35781,-4.06238 -0.61846,-0.45894 -1.12448,-0.92106 -1.12448,-1.02693 0,-0.10587 -0.74414,-0.76016 -1.65364,-1.45397 -0.90951,-0.69381 -2.68662,-2.15929 -3.94914,-3.25661 -4.02619,-3.49938 -10.83976,-8.93142 -12.3524,-9.8478 -0.52939,-0.32072 -1.43878,-0.96479 -2.02086,-1.43128 -1.0971,-0.87921 -8.1159,-4.37056 -10.78177,-5.36315 -4.66845,-1.73822 -7.87799,-2.72763 -10.3849,-3.20137 -0.87312,-0.165 -2.12328,-0.40977 -2.77812,-0.54393 -8.03847,-1.6469 -21.489784,-0.95366 -27.913543,1.43858 -1.22024,0.45442 -2.248958,0.53024 -2.248958,0.16574 0,-0.25581 2.017672,-2.71243 3.709965,-4.51708 0.512512,-0.54653 1.089261,-1.28785 1.281664,-1.64735 0.192403,-0.35951 0.860062,-0.97617 1.483686,-1.37036 1.175242,-0.74287 1.797825,-1.36571 2.583712,-2.5848 0.872103,-1.35283 2.405739,-1.70371 11.313894,-2.58851 6.42719,-0.63838 17.34928,-0.26425 18.3049,0.62702 0.73935,0.68957 1.77115,0.80225 2.37145,0.25898 0.52901,-0.47874 6.61757,-0.0713 8.5601,0.57289 0.58209,0.19302 1.82565,0.41948 2.76348,0.50325 0.93782,0.0838 2.22536,0.40414 2.86118,0.71194 0.74818,0.36218 2.2805,0.69027 4.34316,0.9299 1.75291,0.20365 3.63452,0.4708 4.18135,0.59367 0.59118,0.13283 1.17739,0.12089 1.44603,-0.0294 0.24848,-0.13906 0.51136,-0.19326 0.58417,-0.12045 0.0728,0.0728 -0.11471,0.21081 -0.41672,0.30667 -0.72973,0.2316 -0.70095,0.8885 0.0462,1.05472 0.32742,0.0728 2.01087,0.25692 3.741,0.40907 1.73013,0.15214 3.22522,0.32578 3.32243,0.38586 0.0972,0.0601 1.36055,0.19015 2.80744,0.28905 1.44688,0.0989 2.71035,0.2262 2.80772,0.28288 1.52757,0.88925 18.04063,-0.62791 19.44017,-1.78609 0.34423,-0.28486 3.6584,-1.20391 4.45988,-1.23677 2.18082,-0.0894 3.09001,-0.39374 2.97491,-0.99583 -0.11574,-0.60543 1.16526,-1.17469 2.64338,-1.17469 0.26905,0 0.94276,-0.42783 1.49714,-0.95074 1.43516,-1.35369 2.43801,-1.68768 5.24535,-1.74692 2.10174,-0.0443 2.20421,-0.065 0.71064,-0.14345 -1.71058,-0.0898 -1.75549,-0.11112 -2.26105,-1.07266 l -0.5158,-0.98102 -4.48582,-0.16476 c -5.70117,-0.20939 -11.70597,-0.79657 -12.37507,-1.21009 -0.28777,-0.17785 0.76745,-1.29193 1.8678,-1.97198 0.9788,-0.60494 2.04087,-2.28233 2.32031,-3.66463 0.22172,-1.09678 1.13243,-2.38061 2.72147,-3.83646 l 1.15516,-1.05833 0.0886,-2.11667 c 0.10173,-2.43044 0.63255,-4.66863 1.14736,-4.83779 0.28331,-0.0931 0.33562,0.44681 0.26458,2.73128 -0.10064,3.23678 0.36979,4.22392 0.68504,1.43745 0.26632,-2.35392 0.28139,-2.37344 1.83442,-2.37512 1.72721,-0.002 3.08409,-0.37746 3.81131,-1.05496 0.31352,-0.29209 0.73095,-0.53107 0.92764,-0.53107 0.66325,0 3.5507,-3.33612 4.04519,-4.67375 0.26012,-0.70365 0.57745,-1.4178 0.70518,-1.58699 0.49139,-0.65088 -0.50051,-2.19701 -1.76962,-2.7584 -1.26732,-0.56059 -1.50073,-0.94554 -0.73654,-1.21475 2.15785,-0.76018 2.66723,-2.1752 1.37182,-3.81079 -1.20553,-1.52211 -1.04932,-2.7916 0.32876,-2.67172 0.77296,0.0673 1.03499,-0.0312 1.27467,-0.47907 0.19556,-0.36541 0.50482,-0.53481 0.87911,-0.48152 0.72902,0.10378 0.74248,0.51344 0.0286,0.86937 -0.72861,0.36325 -0.92616,3.52085 -0.26184,4.18518 0.2276,0.22759 0.41381,0.60464 0.41381,0.83789 0,0.5699 0.70642,0.80932 1.194,0.40467 0.58024,-0.48156 0.487,-0.70659 -0.42441,-1.02431 -0.7948,-0.27707 -0.81187,-0.31704 -0.60424,-1.41495 0.11752,-0.6214 0.21769,-1.51677 0.2226,-1.98971 0.005,-0.47295 0.10673,-0.8599 0.22626,-0.8599 0.93193,0 1.40655,-1.84122 0.68814,-2.66954 -0.85418,-0.98488 -0.53117,-1.56379 0.87251,-1.56379 0.60901,0 2.80557,1.90245 3.31525,2.87135 0.7752,1.47368 0.19312,3.31497 -1.31644,4.16425 -0.49296,0.27734 -0.83453,1.43776 -0.53828,1.82868 0.36014,0.47523 2.33611,1.71905 2.73094,1.71905 0.52405,0 2.97955,1.31606 3.22144,1.72657 0.10728,0.18207 0.49376,0.40601 0.85885,0.49764 0.73437,0.18431 2.75922,2.22562 3.19014,3.21607 0.15142,0.34802 0.58354,0.96297 0.96027,1.36656 0.85156,0.91224 1.24896,2.20247 1.19059,3.86541 -0.0386,1.10088 0.0581,1.36813 0.69253,1.914 0.68938,0.59311 0.7468,0.80288 0.88096,3.21838 0.18208,3.27816 0.23249,3.44818 0.85534,2.88451 0.8341,-0.75484 2.15647,0.1794 2.15647,1.52352 0,0.30918 0.22333,0.70161 0.49629,0.87207 0.27296,0.17047 0.57374,0.72281 0.66841,1.22743 0.2794,1.48936 1.0807,2.29409 2.28429,2.29409 0.56613,0 1.63346,0.23813 2.37184,0.52917 0.73838,0.29104 1.53863,0.52916 1.77834,0.52916 0.23971,0 0.91992,0.22743 1.51156,0.5054 0.59165,0.27797 1.96869,0.87788 3.0601,1.33313 1.09141,0.45525 2.16297,0.93582 2.38125,1.06793 0.21828,0.13212 1.14035,0.59721 2.04904,1.03354 0.90869,0.43632 2.05103,1.09754 2.53852,1.46937 0.48749,0.37183 0.9848,0.67605 1.10512,0.67605 0.12033,0 0.40675,0.16749 0.63649,0.37219 0.5797,0.51653 5.67517,3.06706 6.13101,3.06887 0.20466,8.1e-4 0.84411,0.13252 1.421,0.29268 l 1.04889,0.2912 -0.71816,0.52314 c -1.0239,0.74586 -0.90703,0.9236 0.74281,1.12974 2.67785,0.33457 3.76398,-0.20603 2.05311,-1.02189 -1.26323,-0.60239 -0.64803,-1.0618 1.37961,-1.03027 1.18664,0.0184 1.42173,-0.0794 2.26568,-0.94264 1.30341,-1.33326 2.99186,-2.66718 4.58815,-3.62476 0.74215,-0.44519 1.58748,-1.1826 1.87852,-1.63868 0.29104,-0.45608 0.85734,-0.96979 1.25843,-1.14157 0.4011,-0.17178 1.19076,-0.77383 1.75481,-1.33788 0.56405,-0.56405 1.10729,-1.02555 1.2072,-1.02555 0.0999,0 1.19167,-0.71781 2.42613,-1.59514 1.23446,-0.87733 2.7443,-1.77991 3.3552,-2.00574 0.6109,-0.22583 1.40839,-0.56465 1.77219,-0.75294 3.32424,-1.72052 9.34271,-2.50405 12.32722,-1.60486 0.71435,0.21522 1.95367,0.46657 2.75403,0.55854 0.80036,0.092 2.52677,0.56987 3.83646,1.062 1.30969,0.49213 2.52205,0.89563 2.69415,0.89667 0.17209,10e-4 0.38999,0.2448 0.48422,0.54168 0.0942,0.29689 0.62885,0.72286 1.18804,0.9466 0.55919,0.22375 1.07714,0.56429 1.151,0.75676 0.0738,0.19247 0.80303,0.79383 1.62039,1.33636 2.03417,1.3502 3.07058,2.70038 2.43153,3.16767 -0.65975,0.48242 -1.03389,1.90308 -0.55007,2.08874 0.21368,0.082 0.55473,-0.13538 0.80023,-0.51005 0.57255,-0.87383 1.00428,-0.82274 1.79371,0.21225 1.00792,1.32146 1.3117,3.00868 0.62793,3.48761 -0.38531,0.26988 -0.47647,0.51133 -0.32311,0.85584 0.19269,0.43287 0.22383,0.42156 0.31776,-0.11542 0.0573,-0.32742 0.21493,-0.59531 0.35033,-0.59531 0.1354,0 0.32942,-0.0298 0.43116,-0.0661 0.23654,-0.0846 0.85426,2.87695 1.04982,5.03317 0.16168,1.78254 -0.76582,6.67464 -1.26544,6.67464 -0.14143,0 -0.22723,0.14883 -0.19068,0.33073 0.12203,0.60725 -0.32915,1.84918 -0.98342,2.70697 -0.35604,0.46679 -0.64734,1.05383 -0.64734,1.30452 0,0.2507 -0.38696,0.85363 -0.8599,1.33985 -0.47294,0.48622 -1.40403,1.46049 -2.06909,2.16505 -1.54618,1.63799 -3.18197,3.0008 -3.6019,3.0008 -0.18022,0 -0.55245,0.24128 -0.82719,0.53618 -0.5421,0.58187 -1.88115,1.05132 -2.9988,1.05132 -0.38669,0 -1.33998,0.29649 -2.11841,0.65887 -1.47156,0.68505 -7.64792,1.01755 -8.01029,0.43123 -0.21924,-0.35475 -2.69867,-1.10424 -4.22081,-1.27589 -1.44388,-0.16283 -2.81028,-0.71902 -2.81028,-1.14392 0,-0.14179 -0.3056,-0.25779 -0.67911,-0.25779 -0.37351,0 -1.05812,-0.28265 -1.52136,-0.62811 -1.17279,-0.87462 -3.9166,-1.77079 -6.24562,-2.03991 -2.12971,-0.24609 -3.40025,-1.08314 -3.93471,-2.59224 -1.0488,-2.96141 -1.09577,-3.66363 -0.25305,-3.78332 0.45627,-0.0648 0.61467,-0.28538 0.67822,-0.94444 0.0559,-0.57924 0.22176,-0.8599 0.50833,-0.8599 0.23398,0 0.63392,-0.18868 0.88874,-0.4193 0.80099,-0.72488 2.53856,-0.79954 3.42118,-0.14699 0.42127,0.31146 0.84207,0.56629 0.9351,0.56629 0.2842,0 1.71506,1.63447 2.12523,2.42764 0.21256,0.41105 0.60381,0.74736 0.86944,0.74736 0.26563,0 1.06624,0.3141 1.77914,0.69799 12.53822,6.7518 25.14399,1.62149 24.35604,-9.91245 -0.64565,-9.45115 -12.42875,-15.11941 -22.08593,-10.62445 -5.4279,2.52644 -11.58994,8.98355 -16.15491,16.9285 -0.6271,1.0914 -1.31531,2.28203 -1.52936,2.64583 -0.21406,0.3638 -0.74454,1.37583 -1.17885,2.24896 -0.43431,0.87312 -1.17082,2.19433 -1.63669,2.93601 -0.46587,0.74168 -1.20423,1.91585 -1.64079,2.60926 -0.43656,0.69341 -1.45305,2.11065 -2.25887,3.14941 -0.80581,1.03876 -1.75036,2.30537 -2.099,2.81469 -0.72804,1.0636 -4.71632,5.57977 -5.9349,6.72045 -2.11036,1.97544 -4.20639,3.8171 -5.36761,4.71621 -0.70013,0.54208 -1.92779,1.50002 -2.72816,2.12876 -2.27341,1.78589 -9.88684,6.05119 -12.17083,6.81851 -0.50933,0.17111 -2.11667,0.7626 -3.57188,1.31443 -2.9407,1.11514 -6.26708,2.15989 -8.84432,2.77783 -2.89588,0.69434 -2.899,0.71749 -0.69639,5.17241 4.18414,8.46271 9.57662,13.20021 16.28648,14.30832 1.24415,0.20547 1.85319,0.42522 1.85319,0.66865 0,0.40323 -54.37151,0.50455 -55.43021,0.10329 z m 12.56771,-4.51219 c 0,-0.14552 -0.0525,-0.26458 -0.11668,-0.26458 -0.0642,0 -0.19026,0.11906 -0.28019,0.26458 -0.0899,0.14552 -0.0374,0.26458 0.11667,0.26458 0.15411,0 0.2802,-0.11906 0.2802,-0.26458 z m 1.5847,-1.18725 c 0.39875,-0.48046 0.16821,-1.194 -0.38577,-1.194 -0.27381,0 -0.40518,0.25735 -0.40518,0.79375 0,0.86809 0.28358,1.01159 0.79095,0.40025 z m 2.11947,-3.31067 c 0,-0.60468 -0.76367,-0.91543 -0.96437,-0.39241 -0.0828,0.21583 -0.0828,0.569 0,0.78483 0.2007,0.52302 0.96437,0.21227 0.96437,-0.39242 z m 2.38125,-4.6302 c 0,-0.21829 -0.11204,-0.39688 -0.24897,-0.39688 -0.33363,0 -0.57258,0.41317 -0.3612,0.62455 0.29797,0.29797 0.61017,0.18148 0.61017,-0.22767 z m 94.27164,-35.31383 c 0.42911,-0.39311 -2.94081,-0.90775 -3.40755,-0.52038 -0.38655,0.32081 -0.38707,0.37947 -0.006,0.65822 0.43746,0.31988 3.02797,0.21527 3.41341,-0.13784 z m 3.61039,-0.52309 c 0.30125,-0.19059 0.23382,-0.27981 -0.31569,-0.41773 -0.7288,-0.18292 -1.25801,-0.007 -1.25801,0.41922 0,0.31764 1.07087,0.31662 1.5737,-0.001 z m 1.46901,-1.74591 c 0.96146,-0.1498 1.2519,-0.73239 0.50753,-1.01804 -1.05152,-0.4035 -3.81482,-0.17485 -3.81482,0.31566 0,0.76281 0.5603,1.12674 1.50986,0.98069 0.47926,-0.0737 1.28811,-0.19895 1.79743,-0.27831 z m -8.8777,-0.35844 c 0.19798,-0.36991 0.17677,-0.53813 -0.0803,-0.63677 -0.44978,-0.1726 -2.05252,0.15175 -2.03533,0.41189 0.007,0.10914 0.0131,0.3175 0.0131,0.46302 0,0.50366 1.81557,0.29802 2.10251,-0.23814 z m -95.28871,-1.24417 c -0.38653,-0.37882 -2.05415,-0.15184 -2.14306,0.29168 -0.0731,0.3646 1.7189,0.61641 2.14306,0.30115 0.28229,-0.20982 0.28229,-0.31618 0,-0.59283 z m 109.59037,-0.31709 c 1.35316,-0.5598 2.44976,-0.83532 2.70262,-0.67904 0.14967,0.0925 0.13821,-0.0676 -0.0269,-0.37621 -0.50319,-0.94021 -2.23521,-1.03623 -3.50725,-0.19444 -0.58712,0.38854 -1.24414,0.63864 -1.46004,0.55579 -0.50704,-0.19456 -1.41256,0.28995 -1.41256,0.75582 0,0.2508 0.32221,0.34865 1.05845,0.32142 0.58215,-0.0215 1.0584,0.0512 1.05833,0.16153 -6e-5,0.11037 0.20825,0.0945 0.46291,-0.0353 0.25466,-0.12977 0.76067,-0.35909 1.12448,-0.50959 z m -71.90052,0.23214 c 0.60138,-0.0614 0.0725,-0.54941 -0.59532,-0.54941 -0.43656,0 -0.79375,0.0992 -0.79375,0.22049 0,0.36539 0.27529,0.52605 0.74565,0.43516 0.24474,-0.0473 0.53428,-0.0951 0.64342,-0.10624 z m 53.28763,-0.36916 c 0.28716,-0.28716 -0.47305,-0.974 -1.07805,-0.974 -0.31688,0 -0.71421,0.13807 -0.88296,0.30682 -0.2327,0.23269 -0.56952,0.13296 -1.39431,-0.41286 -1.62434,-1.07494 -3.00183,-0.58986 -2.04416,0.71983 0.56936,0.77865 4.70514,1.05455 5.39948,0.36021 z m -51.76628,-0.0788 c 0,-0.0558 -0.23812,-0.10144 -0.52917,-0.10144 -0.29104,0 -0.52916,0.10792 -0.52916,0.23982 0,0.13189 0.23812,0.17754 0.52916,0.10143 0.29105,-0.0761 0.52917,-0.18403 0.52917,-0.23981 z m -45.03232,-0.68538 c 0.10813,-0.55724 -0.59777,-0.78018 -1.44744,-0.45714 -0.73845,0.28076 -0.61039,0.63226 0.30997,0.85077 0.74934,0.17791 1.04652,0.0751 1.13747,-0.39363 z m 52.83753,-1.53272 c 0.20695,-0.33486 -0.14331,-0.33486 -0.66146,0 -0.34202,0.22103 -0.33504,0.25704 0.0505,0.26053 0.24607,0.002 0.52099,-0.11501 0.61093,-0.26053 z m 34.26354,-0.1323 c 0,-0.0728 -0.0595,-0.13229 -0.13229,-0.13229 -0.0728,0 -0.13229,0.0595 -0.13229,0.13229 0,0.0728 0.0595,0.1323 0.13229,0.1323 0.0728,0 0.13229,-0.0595 0.13229,-0.1323 z m -32.08389,-0.85041 c 0.12522,-0.37564 -0.75239,-0.68268 -1.06313,-0.37194 -0.13761,0.13761 -0.17676,0.36904 -0.087,0.51428 0.20383,0.3298 1.0267,0.22797 1.15013,-0.14234 z m 28.31358,-0.14177 c -0.0606,-0.1819 -0.20946,-0.33073 -0.33073,-0.33073 -0.12127,0 -0.2701,0.14883 -0.33073,0.33073 -0.0606,0.1819 0.0882,0.33073 0.33073,0.33073 0.24253,0 0.39136,-0.14883 0.33073,-0.33073 z m 37.98377,-1.61553 c 0.0821,0.0821 0.0931,-0.30377 0.0244,-0.85752 -0.17856,-1.4397 -0.90039,-1.61873 -0.90039,-0.22332 0,0.46291 -0.14546,0.64585 -0.51355,0.64585 -0.6488,0 -0.98963,0.51882 -0.52818,0.80401 0.20038,0.12384 0.65118,0.0594 1.05869,-0.15132 0.39033,-0.20186 0.77689,-0.29982 0.859,-0.2177 z m -133.23213,-1.03031 c -0.0597,-0.1819 -0.4566,-0.36903 -0.88194,-0.41584 -0.74497,-0.082 -0.75393,-0.0702 -0.24418,0.32231 0.64242,0.49463 1.27508,0.54718 1.12612,0.0935 z m 72.4231,-0.24433 c 0.49322,-0.22472 0.588,-0.36975 0.34318,-0.52511 -0.59416,-0.37705 -1.19831,-0.23899 -1.34094,0.30642 -0.15919,0.60873 0.044,0.65327 0.99776,0.21869 z m -78.44401,-1.80619 c 0,-0.14552 -0.36422,-0.26458 -0.80937,-0.26458 -0.4722,0 -0.74124,0.11022 -0.64584,0.26458 0.0899,0.14552 0.45415,0.26459 0.80936,0.26459 0.35522,0 0.64585,-0.11907 0.64585,-0.26459 z m 141.63936,-0.63956 c 0.0791,-0.20624 -0.0272,-0.44063 -0.23628,-0.52086 -0.20909,-0.0802 -0.38017,-0.39478 -0.38017,-0.69897 0,-0.3101 -0.11906,-0.4795 -0.27101,-0.38559 -0.47035,0.29069 -0.0242,1.9804 0.5229,1.9804 0.12137,0 0.28542,-0.16874 0.36456,-0.37498 z m -57.23728,-2.00627 c 0,-0.14552 0.17859,-0.26458 0.39688,-0.26458 0.24968,0 0.39687,-0.25184 0.39687,-0.67904 0,-1.13649 -1.42609,-0.81356 -1.53812,0.34831 -0.0616,0.6388 0.0234,0.85989 0.33073,0.85989 0.2275,0 0.41364,-0.11906 0.41364,-0.26458 z m -93.92708,-0.99818 c 0,-0.52231 -2.06789,-1.15089 -2.99155,-0.90935 -0.4342,0.11354 -0.35474,0.23093 0.51111,0.75505 1.25242,0.75813 2.48044,0.83452 2.48044,0.1543 z m -7.9375,-2.45702 c 0,-0.13693 -0.29766,-0.24897 -0.66146,-0.24897 -0.753,0 -0.89847,0.43655 -0.19844,0.59551 0.54725,0.12427 0.8599,-0.002 0.8599,-0.34654 z m 5.4901,-0.39525 c 0.76399,-0.086 1.38906,-0.2739 1.38906,-0.41754 0,-0.14364 -0.10658,-0.19529 -0.23685,-0.11477 -0.13027,0.0805 -1.35066,0.1584 -2.71198,0.1731 -1.36132,0.0147 -2.71325,0.0925 -3.00429,0.17296 l -0.52917,0.14625 0.52917,0.19407 c 0.52519,0.19261 1.89549,0.14635 4.56406,-0.15407 z m 97.82969,0.17414 1.05833,-0.20623 -1.05833,-0.19959 c -0.58208,-0.10977 -1.43991,-0.29668 -1.90627,-0.41535 -1.04164,-0.26505 -1.74791,0.30128 -0.95267,0.76391 0.56031,0.32596 1.39431,0.34266 2.85894,0.0573 z m -7.67292,-0.29244 c 0.0899,-0.14552 0.0374,-0.26458 -0.11667,-0.26458 -0.15411,0 -0.2802,0.11906 -0.2802,0.26458 0,0.14552 0.0525,0.26458 0.11667,0.26458 0.0642,0 0.19027,-0.11906 0.2802,-0.26458 z m 11.24479,0.022 c 0,-0.34351 -0.49231,-0.46498 -1.36524,-0.33686 -1.12486,0.16509 -0.9054,0.57939 0.30691,0.57939 0.58208,0 1.05833,-0.10914 1.05833,-0.24253 z m -110.52968,-0.47112 c 0.52623,-0.29522 0.091,-0.60926 -0.84428,-0.60926 -1.0985,0 -1.65614,0.43393 -1.0439,0.81232 0.32508,0.20091 1.36802,0.0888 1.88818,-0.20306 z m 112.91093,-0.0801 c 0,-0.14552 -0.11906,-0.26458 -0.26458,-0.26458 -0.14552,0 -0.26458,0.11906 -0.26458,0.26458 0,0.14552 0.11906,0.26459 0.26458,0.26459 0.14552,0 0.26458,-0.11907 0.26458,-0.26459 z m -119.33604,-0.78261 c 0.31043,-0.19634 0.24039,-0.30143 -0.35066,-0.52614 -0.40621,-0.15444 -0.9167,-0.45893 -1.13441,-0.67665 -0.47846,-0.47846 -1.53188,-0.49198 -2.60701,-0.0335 l -0.79375,0.33852 0.92604,0.21308 c 0.50932,0.11719 1.11327,0.19371 1.3421,0.17004 0.22883,-0.0237 0.76461,0.13873 1.19062,0.36089 0.90567,0.47228 0.92083,0.47391 1.42707,0.15373 z m 109.80924,-0.20129 c -0.002,-0.26757 -1.65936,-1.39735 -2.04947,-1.39735 -0.53198,0 -0.65719,0.55058 -0.23205,1.02036 0.41445,0.45796 2.28493,0.76703 2.28152,0.37699 z m 12.7018,-2.09004 c 0,-0.21828 -0.11906,-0.32329 -0.26458,-0.23335 -0.14552,0.0899 -0.26458,0.34212 -0.26458,0.5604 0,0.21828 0.11906,0.32329 0.26458,0.23335 0.14552,-0.0899 0.26458,-0.34212 0.26458,-0.5604 z m -130.57187,-0.0938 c 0,-0.44255 -1.10464,-0.71486 -3.42375,-0.84399 -2.60609,-0.1451 -2.21639,0.61756 0.51333,1.0046 2.53608,0.35959 2.91042,0.33893 2.91042,-0.16061 z m 114.63799,0.0541 c -0.58408,-0.70377 -1.25898,-0.91153 -1.4388,-0.44292 -0.1988,0.51806 0.33825,0.91196 1.15245,0.84529 0.45382,-0.0372 0.51643,-0.12513 0.28635,-0.40237 z m 16.46305,-0.45821 c 0,-0.0728 -0.0595,-0.13229 -0.13229,-0.13229 -0.0728,0 -0.13229,0.0595 -0.13229,0.13229 0,0.0728 0.0595,0.13229 0.13229,0.13229 0.0728,0 0.13229,-0.0595 0.13229,-0.13229 z m -154.76385,-1.19994 c 0.66444,-0.3556 0.65004,-0.70489 -0.0381,-0.92329 -0.67418,-0.21398 -5.0064,0.37252 -5.0064,0.67777 0,0.47265 4.23495,0.67877 5.04448,0.24552 z m 11.69473,-0.1681 c 0.70782,-0.43198 -0.66946,-0.55923 -5.01056,-0.46293 -4.91789,0.1091 -6.97102,0.359 -3.23994,0.39435 1.07928,0.0102 2.20046,0.12036 2.4915,0.24474 0.51435,0.21981 5.35269,0.0718 5.759,-0.17616 z m 116.87331,-0.83039 c -10e-4,-0.24607 -0.2988,-0.58503 -0.66146,-0.75324 -0.61959,-0.28738 -0.6594,-0.2606 -0.6594,0.44362 0,0.49732 0.15577,0.78483 0.46302,0.8546 0.6229,0.14144 0.86031,-0.009 0.85784,-0.54498 z m 70.38123,0.002 c 0,-1.24568 -0.82634,-1.77454 -1.32292,-0.84666 -0.36822,0.68803 0.0868,1.5875 0.80306,1.5875 0.39298,0 0.51986,-0.18081 0.51986,-0.74084 z m -67.46875,0.34396 c 0,-0.0728 -0.0595,-0.13229 -0.13229,-0.13229 -0.0728,0 -0.1323,0.0595 -0.1323,0.13229 0,0.0728 0.0595,0.13229 0.1323,0.13229 0.0728,0 0.13229,-0.0595 0.13229,-0.13229 z m -5.72841,-2.6543 c -0.17706,-0.46141 -0.51942,-0.50319 -0.77217,-0.0942 -0.19564,0.31655 0.39184,0.80981 0.7217,0.60595 0.10974,-0.0678 0.13245,-0.29809 0.0505,-0.51171 z m 35.33415,-0.10117 c 0.2031,-0.12861 0.30171,-0.40993 0.21911,-0.62517 -0.0826,-0.21523 -0.0166,-0.5249 0.14666,-0.68816 0.21937,-0.21937 0.1507,-0.29682 -0.26321,-0.29682 -0.30802,0 -0.61461,-0.14883 -0.68131,-0.33073 -0.2903,-0.79173 -0.83048,0.45184 -0.74704,1.71979 0.0325,0.49341 0.71577,0.60735 1.32579,0.22109 z m -43.49637,-3.32632 c 0,-0.62099 -0.78401,-0.84775 -1.33889,-0.38724 -0.30109,0.24989 -0.31816,0.40499 -0.0766,0.69607 0.4502,0.54246 1.41548,0.33185 1.41548,-0.30883 z m 44.91302,0.37934 c 0.54571,-0.15155 0.99219,-0.39604 0.99219,-0.54331 0,-0.14727 -0.11906,-0.19417 -0.26458,-0.10424 -0.14552,0.0899 -0.26459,0.0333 -0.26459,-0.12598 0,-0.2081 -0.15462,-0.20676 -0.54984,0.005 -0.30241,0.16184 -0.71042,0.23264 -0.90669,0.15732 -0.19628,-0.0753 -0.4896,0.023 -0.65183,0.21848 -0.21999,0.26507 -0.20809,0.39028 0.0468,0.49256 0.50156,0.20124 0.51927,0.20014 1.59854,-0.0996 z m 3.91363,-1.45458 c 0.55897,-0.67352 -0.36017,-1.47076 -0.98048,-0.85044 -0.43245,0.43244 -0.14319,1.2606 0.44029,1.2606 0.10988,0 0.35297,-0.18457 0.54019,-0.41016 z m 24.55639,-1.24991 c -0.14657,-0.27387 -0.19901,-0.67382 -0.11652,-0.88877 0.17242,-0.44933 -1.3017,-1.17493 -2.28354,-1.12402 -0.49804,0.0258 -0.46476,0.0667 0.18994,0.23327 0.43656,0.11109 0.58539,0.21607 0.33073,0.23328 -0.74132,0.0501 -0.53459,0.73121 0.33073,1.08964 0.43656,0.18083 0.79375,0.46912 0.79375,0.64064 0,0.17152 0.14221,0.45407 0.31602,0.62789 0.45273,0.45272 0.78588,-0.16358 0.43889,-0.81193 z m -75.8708,-1.17819 c 0.80274,-1.87271 0.69469,-2.98258 -0.29036,-2.98258 -0.7878,0 -0.79389,0.0114 -0.81198,1.52136 -0.01,0.83674 -0.0607,1.84163 -0.11255,2.23308 -0.14702,1.10942 0.61638,0.62441 1.21489,-0.77186 z m 58.67703,0.36652 c 0.34678,-0.41785 0.13455,-0.70326 -0.52296,-0.70326 -0.54327,0 -0.87018,0.40994 -0.63297,0.79375 0.23086,0.37355 0.80833,0.32834 1.15593,-0.0905 z m 0.36542,-1.14307 c -0.1819,-0.0734 -0.47956,-0.0734 -0.66146,0 -0.1819,0.0734 -0.0331,0.13345 0.33073,0.13345 0.3638,0 0.51263,-0.0601 0.33073,-0.13345 z m 7.57041,-0.84185 c 0.67795,0.086 0.5396,-0.13741 -0.36051,-0.58223 -0.87834,-0.43407 -1.39584,-0.49749 -3.04271,-0.37287 -1.09141,0.0826 -2.80912,0.0303 -3.81714,-0.11614 -1.00802,-0.14646 -1.94113,-0.19931 -2.07357,-0.11746 -0.43726,0.27024 0.18619,0.59193 1.26102,0.65066 0.5818,0.0318 1.18531,0.15345 1.34115,0.27036 0.15584,0.1169 0.63209,0.20149 1.05834,0.18796 1.00725,-0.032 3.5806,0.24234 3.73655,0.39829 0.0665,0.0665 0.48261,0.0173 0.9246,-0.1095 0.44199,-0.12676 0.87951,-0.22084 0.97227,-0.20907 z m 2.94678,0.091 c 0,-0.0728 -0.0595,-0.13229 -0.13229,-0.13229 -0.0728,0 -0.1323,0.0595 -0.1323,0.13229 0,0.0728 0.0595,0.13229 0.1323,0.13229 0.0728,0 0.13229,-0.0595 0.13229,-0.13229 z m -104.51042,-1.23271 c 0,-0.1052 -0.11906,-0.26485 -0.26458,-0.35479 -0.14552,-0.0899 -0.26459,-0.0462 -0.26459,0.0973 0,0.14344 -0.20835,0.31577 -0.46302,0.38296 -0.25466,0.0672 -0.1356,0.10949 0.26459,0.094 0.40018,-0.0155 0.7276,-0.11425 0.7276,-0.21944 z m 2.83767,-3.13291 c 0.0228,-0.3023 -0.12324,-0.52917 -0.34057,-0.52917 -0.46344,0 -0.49009,0.31368 -0.0629,0.74083 0.17462,0.17463 0.32788,0.3175 0.34057,0.3175 0.0127,0 0.041,-0.23812 0.0629,-0.52916 z m 2.82771,-2.27669 c 0.70596,-0.2709 0.18009,-0.63373 -0.91849,-0.63373 -0.9792,0 -1.27378,0.20992 -0.86633,0.61736 0.22003,0.22004 1.22995,0.2293 1.78482,0.0164 z m 23.87976,-0.54553 c -0.097,-0.097 -0.17639,-0.0176 -0.17639,0.17638 0,0.19403 0.0794,0.27341 0.17639,0.17639 0.097,-0.097 0.097,-0.25576 0,-0.35277 z m -0.44097,-5.65112 c 0,-0.51687 -0.35076,-1.05166 -0.68977,-1.05166 -0.36295,0 -0.52573,1.07756 -0.21041,1.39288 0.20374,0.20373 0.90018,-0.0603 0.90018,-0.34122 z m -14.2875,-0.40582 c 0,-0.22687 -0.12101,-0.3377 -0.2689,-0.2463 -0.1479,0.0914 -0.2004,0.27702 -0.11668,0.41249 0.22681,0.36699 0.38558,0.29856 0.38558,-0.16619 z m 12.86967,-1.57388 c 0.23915,-0.62324 -0.15672,-2.29515 -0.51558,-2.17743 -0.34216,0.11224 -0.57364,1.60226 -0.3425,2.20461 0.18792,0.4897 0.66553,0.47458 0.85808,-0.0272 z m -7.36017,-4.88988 c 1.45108,-0.003 1.66088,-0.0643 1.58136,-0.46594 -0.0721,-0.36388 -0.31697,-0.4472 -1.14388,-0.38915 -0.57871,0.0406 -2.02709,0.0798 -3.21864,0.0871 -1.71588,0.0105 -2.13769,0.0882 -2.02815,0.37368 0.17251,0.44956 1.00404,0.6384 2.21022,0.50194 0.50933,-0.0576 1.67892,-0.10607 2.59909,-0.10767 z"
         id="path2370" /><path
         style="fill:#ebaa43"
         d="m 197.30591,-226.43012 c -10.76854,-0.0766 -19.4601,-0.16991 -19.31458,-0.2074 0.14552,-0.0375 1.04601,-0.23384 2.00109,-0.4363 2.91832,-0.61865 6.16638,-2.17335 7.98417,-3.82165 0.90509,-0.8207 1.30315,-0.52884 0.47745,0.35008 -1.33935,1.42567 -0.0176,1.92308 1.85476,0.698 2.49279,-1.631 4.22527,-3.84274 5.82193,-7.43246 0.16182,-0.3638 0.52252,-1.13771 0.80158,-1.71979 0.27905,-0.58208 0.51082,-1.23693 0.51504,-1.45521 0.004,-0.21828 0.18249,-0.62799 0.39614,-0.91046 0.62681,-0.82872 0.48021,-1.40859 -0.40529,-1.60308 -0.86585,-0.19017 -0.98989,-0.64028 -0.51829,-1.88068 0.37841,-0.99529 2.6e-4,-1.26831 -2.26193,-1.63312 -4.90175,-0.79047 -13.46017,-4.13695 -18.18275,-7.10974 -0.54281,-0.34169 -1.04468,-0.62125 -1.11526,-0.62125 -0.64748,0 -12.15212,-8.29938 -15.12392,-10.9103 -0.7121,-0.62563 -1.89003,-1.60155 -2.61764,-2.16872 -0.7276,-0.56717 -1.44198,-1.16083 -1.5875,-1.31924 -0.32686,-0.35581 -3.36612,-2.92582 -5.97045,-5.04862 -1.07118,-0.87312 -2.66635,-2.18521 -3.54482,-2.91574 -4.72686,-3.93081 -9.07257,-6.57152 -15.35556,-9.33092 -13.33562,-5.85683 -28.85388,-7.18053 -41.804166,-3.56588 -3.259274,0.90972 -3.571875,0.96635 -3.571875,0.64707 0,-0.26703 2.177679,-2.92554 3.836881,-4.68408 0.436795,-0.46294 0.950007,-1.13289 1.140472,-1.48878 0.524539,-0.98011 1.176823,-1.27102 4.108273,-1.83225 15.988465,-3.06099 34.442645,-1.72215 51.768535,3.75578 9.7404,3.07962 17.2566,5.76621 27.51667,9.83556 15.26789,6.05555 23.6083,7.86319 36.24792,7.85612 18.5227,-0.0104 32.84063,-5.17228 49.87638,-17.98149 1.45654,-1.09517 2.94482,-2.19578 3.30729,-2.4458 0.36247,-0.25002 1.43294,-1.00283 2.37883,-1.67292 2.54328,-1.80172 9.04381,-6.08128 9.94577,-6.5477 0.43075,-0.22275 1.43231,-0.8325 2.22569,-1.355 0.79338,-0.52251 1.58992,-0.95001 1.77009,-0.95001 0.18016,0 0.88249,-0.35192 1.56073,-0.78205 1.17243,-0.74353 3.20183,-1.47071 6.01384,-2.15487 4.10719,-0.99929 11.65845,1.20341 15.27616,4.45604 9.08125,8.16482 3.81712,23.49151 -8.66471,25.22757 -4.16668,0.57953 -11.40779,-0.78057 -14.95602,-2.80921 -1.50274,-0.85916 -1.95265,-0.82143 -2.45354,0.20575 -1.15813,2.37497 -3.23324,3.19111 -5.95551,2.34233 l -0.92604,-0.28874 1.13984,0.13634 c 1.37575,0.16456 2.98845,-0.47786 4.15182,-1.65388 1.1349,-1.14724 1.34672,-1.45683 1.54949,-2.26473 0.22429,-0.89365 0.54909,-0.89783 2.18142,-0.0281 10.10733,5.38564 21.18515,3.31205 23.92314,-4.47802 4.2595,-12.11904 -9.63233,-22.03275 -22.06467,-15.74612 -5.58939,2.82637 -12.32598,10.37382 -16.8445,18.87202 -2.9864,5.61666 -4.34989,7.89987 -6.08319,10.18646 -0.38608,0.50933 -1.39859,1.87854 -2.25003,3.04271 -3.7487,5.12562 -9.49834,10.69161 -15.73353,15.231 -5.39253,3.92591 -14.12918,7.63022 -24.47396,10.3769 -1.74511,0.46335 -1.7239,0.97667 0.20121,4.87035 4.23687,8.56935 9.59394,13.29159 16.34279,14.40614 1.12253,0.18538 1.82342,0.42284 1.76508,0.598 -0.11271,0.33843 -6.96599,0.36865 -36.30075,0.16005 z m 51.19688,-71.95757 c -1.34202,-0.42238 -5.27097,-2.1372 -6.12764,-2.67445 -5.85117,-3.66953 -12.28373,-6.5632 -16.69267,-7.50918 -0.40019,-0.0859 -0.72761,-0.27585 -0.72761,-0.4222 0,-0.44942 1.30037,-0.81285 1.85201,-0.51762 0.27195,0.14554 0.77017,0.26536 1.10716,0.26626 0.70693,0.002 5.97722,1.48489 6.40902,1.80343 0.159,0.1173 1.12254,0.55308 2.14119,0.9684 2.15864,0.88013 6.54575,3.21832 9.64442,5.14017 1.19429,0.74073 2.21802,1.34678 2.27494,1.34678 0.0569,0 0.75424,0.29765 1.54959,0.66146 0.79535,0.3638 1.56576,0.66146 1.71202,0.66146 0.14626,0 0.33951,0.11906 0.42944,0.26458 0.19479,0.31518 -2.57822,0.32365 -3.57187,0.0109 z m -60.98646,-7.26398 c -4.82415,-0.4865 -6.25618,-0.706 -6.16473,-0.94493 0.0436,-0.11398 0.82672,-0.8294 1.74022,-1.58983 1.7786,-1.48058 1.56976,-1.44057 4.29222,-0.82222 3.60554,0.81894 9.54521,1.17716 19.65103,1.18515 l 10.25833,0.008 -1.52234,0.48213 c -1.38643,0.43909 -3.29462,0.71899 -10.26306,1.50543 -4.07292,0.45966 -14.19741,0.55878 -17.99167,0.17615 z m 8.54935,-14.88809 c 0.19099,-0.0764 0.4192,-0.067 0.50712,0.0209 0.0879,0.0879 -0.0684,0.15045 -0.34727,0.13896 -0.30822,-0.0127 -0.37092,-0.0754 -0.15985,-0.15985 z m 16.58607,-0.14149 c -0.92156,-0.3213 -10.38547,-0.42733 -13.49375,-0.15117 l -2.11667,0.18806 1.45521,-0.37817 c 3.4492,-0.89636 14.71097,-0.60635 15.72219,0.40487 0.33816,0.33816 -0.51386,0.30359 -1.56698,-0.0636 z m -8.58616,-12.95146 c -1.78142,-0.25443 -2.59378,-0.65533 -2.1755,-1.07361 0.14492,-0.14492 0.63689,-0.0756 1.23415,0.17399 1.27461,0.53257 2.8851,0.52757 4.47421,-0.0139 1.72242,-0.58688 2.2482,-0.10266 0.72969,0.67202 -1.15955,0.59156 -1.62634,0.61801 -4.26255,0.2415 z"
         id="path2369" /><path
         style="fill:#dd9837"
         d="m 215.77585,-227.8911 c -2.62151,-3.0072 -5.06282,-8.09473 -5.83841,-12.16687 -0.22172,-1.16417 -0.44212,-2.2655 -0.48976,-2.4474 -0.0641,-0.24476 -1.20634,-0.34416 -4.3944,-0.38239 -7.8417,-0.094 -8.62243,-0.25914 -8.01839,-1.69572 l 0.34314,-0.81609 1.81603,0.24957 c 1.7833,0.24507 11.04851,0.0857 13.26173,-0.22818 l 1.12696,-0.15981 0.55145,1.2848 c 4.39452,10.23859 11.79654,17.29178 18.14724,17.29206 0.46436,2e-5 0.91787,0.11909 1.00781,0.26461 0.10767,0.17422 -2.63801,0.26459 -8.03893,0.26459 h -8.20245 z m -14.63348,-45.48537 c -8.9852,-0.95385 -15.85985,-2.71723 -25.92917,-6.65096 -21.89144,-8.55221 -34.02996,-12.47762 -45.24374,-14.63114 -9.25175,-1.77672 -11.38901,-1.99028 -19.97605,-1.99597 -7.00076,-0.005 -8.75376,0.10552 -15.949297,1.00238 -5.854439,0.7297 -0.891818,-0.57661 6.556597,-1.72588 5.24198,-0.80884 18.39235,-0.8905 23.54791,-0.14625 14.892,2.14982 28.57095,6.1648 49.34479,14.48346 15.98359,6.40046 26.43382,8.54614 39.42292,8.09446 13.76949,-0.47881 28.13515,-4.82666 38.59722,-11.68167 0.38137,-0.24989 0.6934,-0.37911 0.6934,-0.28717 0,0.0919 -1.33945,1.04385 -2.97656,2.11534 -8.58079,5.61615 -18.24794,9.24465 -29.03802,10.89922 -5.41952,0.83104 -13.94867,1.06572 -19.05,0.52418 z"
         id="path2368" /></g></g></svg>
