<?xml version="1.0" encoding="UTF-8" standalone="no"?>
<!-- Created with Inkscape (http://www.inkscape.org/) -->

<svg
   version="1.1"
   id="svg1"
   width="723.38098"
   height="339.42599"
   viewBox="0 0 723.38098 339.42599"
   sodipodi:docname="logo.svg"
   inkscape:version="1.4.3 (0d15f75, 2025-12-25)"
   xmlns:inkscape="http://www.inkscape.org/namespaces/inkscape"
   xmlns:sodipodi="http://sodipodi.sourceforge.net/DTD/sodipodi-0.dtd"
   xmlns="http://www.w3.org/2000/svg"
   xmlns:svg="http://www.w3.org/2000/svg">
  <sodipodi:namedview
     id="namedview1"
     pagecolor="#ffffff"
     bordercolor="#666666"
     borderopacity="1.0"
     inkscape:showpageshadow="2"
     inkscape:pageopacity="0.0"
     inkscape:pagecheckerboard="0"
     inkscape:deskcolor="#d1d1d1"
     inkscape:zoom="1.1320794"
     inkscape:cx="426.20684"
     inkscape:cy="207.58261"
     inkscape:window-width="1728"
     inkscape:window-height="1051"
     inkscape:window-x="0"
     inkscape:window-y="38"
     inkscape:window-maximized="1"
     inkscape:current-layer="g1" />
  <defs
     id="defs1" />
  <g
     id="g1"
     transform="translate(-401.3656,-318.05563)">
    <path
       id="rect1"
       style="display:inline;fill:#e0e0e0;stroke-width:2.64567"
       d="m 989.60309,420.4707 c -6.551,6.5e-4 -13.2681,4.28722 -13.3496,11.875 -0.1104,10.288 12.5713,16.57647 20.9414,10.38477 3.84011,-2.8407 5.68691,-9.02379 4.18951,-14.02149 -1.69211,-5.64768 -6.68611,-8.23878 -11.78131,-8.23828 z m -232.2285,0.61914 c -3.66161,-0.10333 -7.20165,0.0507 -10.42578,0.49219 -25.8911,3.545 -44.22465,18.7818 -50.16015,41.6875 -1.7947,6.9259 -2.06164,23.42249 -0.49024,30.27539 1.5572,6.7915 7.28616,17.99905 11.85156,23.18555 7.3462,8.3458 18.18476,14.32084 31.56836,17.40234 9.2213,2.1231 27.67573,1.21632 39.86133,-1.95898 5.4244,-1.4135 10.4869,-3.08926 11.25,-3.72266 1.1191,-0.9288 1.38867,-6.2533 1.38867,-27.52929 v -26.37696 h -16 -16 v 9 9 h 4.5 4.5 v 10.44141 c 0,6.4739 -0.41605,10.69829 -1.09375,11.11719 -2.2785,1.4082 -17.8579,1.71606 -22.625,0.44726 -10.0292,-2.6693 -19.30015,-10.37556 -23.46875,-19.50586 -1.951,-4.273 -2.28603,-6.672 -2.29883,-16.5 -0.014,-10.5581 0.21236,-11.96112 2.75586,-17.14062 3.3712,-6.8647 10.00284,-13.17866 17.39844,-16.56446 9.951,-4.5558 27.8005,-4.20852 39.1543,0.76368 l 4.32422,1.89453 3.02734,-6.67774 c 5.1724,-11.4075 5.11995,-11.07124 1.99805,-12.68554 -7.94888,-4.1106 -20.0308,-6.73491 -31.01563,-7.04493 z m 85.54492,33.55869 c -8.10638,-0.0154 -16.35969,2.18916 -23.21289,6.90429 -12.0737,8.3069 -17.21794,20.07079 -16.24414,37.15039 1.048,18.38011 10.90758,29.97921 30.07618,35.37891 7.0054,1.9734 21.19827,1.29292 29.76367,-1.42578 3.6218,-1.1496 8.46331,-3.44923 10.75781,-5.11133 l 4.17187,-3.02148 -3.49609,-6.94141 -3.49609,-6.94141 -6.6836,3.12696 c -7.7515,3.6273 -19.43157,4.89237 -25.79296,2.79297 -6.43431,-2.1236 -13.54493,-9.98882 -13.54493,-14.98243 0,-0.68389 9.0861,-1.0332 26.9375,-1.0332 h 26.93946 l 0.69921,-4.66992 c 0.84641,-5.6442 -1.49601,-17.44743 -4.76171,-23.98633 -5.50375,-11.02012 -18.60264,-17.21455 -32.11329,-17.24023 z m 208.31449,0.40625 c -5.5993,-0.0258 -11.1406,0.74556 -15.1289,2.31836 -11.4617,4.5199 -19.196,12.95287 -22.9121,24.98437 -6.1736,19.9878 2.6268,41.44905 20.0254,48.83985 10.4229,4.4275 21.8555,5.41352 32.8222,2.82812 7.3155,-1.7246 16.139,-5.67455 18.4981,-8.28125 1.521,-1.6806 1.4123,-2.24445 -1.5938,-8.25195 -1.7745,-3.5461 -3.2727,-6.56785 -3.3281,-6.71485 -0.055,-0.1471 -3.1713,1.16978 -6.9238,2.92578 -5.2612,2.462 -8.5836,3.29518 -14.5176,3.63868 -9.0457,0.5237 -13.6915,-0.74435 -18.6406,-5.08985 -3.334,-2.9272 -4.1193,-4.22233 -5.75,-9.45703 l -0.7012,-2.25 h 27.0469 27.0488 l 0.6484,-2.58008 c 1.0948,-4.3623 -0.2574,-15.60912 -2.623,-21.82422 -3.0868,-8.10989 -10.5042,-15.58495 -18.4863,-18.62695 -4.2262,-1.61055 -9.8851,-2.43322 -15.4844,-2.45898 z m -115.01175,0.1914 c -9.4352,0.081 -13.58591,1.42383 -21.19531,6.86133 l -4.69532,3.35547 -0.66796,-4.45898 -0.66797,-4.45899 h -9.38672 -9.38672 v 38.5 38.5 h 10.98437 10.98243 l 0.26172,-26.75 0.26757,-26.75 5,-3.3457 c 4.654,-3.1143 5.46348,-3.3204 11.70117,-2.9707 7.7455,0.4342 11.12943,2.74658 12.79493,8.74218 0.5461,1.9658 0.99494,14.26172 0.99804,27.32422 l 0.01,23.75 h 11.0918 11.09181 l -0.3965,-28.25 c -0.3687,-26.1909 -0.5575,-28.65388 -2.58985,-33.80078 -2.4785,-6.2759 -6.61326,-10.67104 -13.19726,-14.02734 -3.6968,-1.8844 -6.0173,-2.28051 -13,-2.22071 z m -284.43164,0.28711 c -6.26068,-0.23554 -12.80033,0.89513 -17.33984,3.28125 l -5.26758,2.76758 -0.95899,-2.51758 c -0.9309,-2.4484 -1.22384,-2.51953 -10.48242,-2.51953 h -9.52344 v 51.5 51.5 h 11 11 v -16.57226 -16.57227 l 2.51172,1.97461 c 3.85169,3.0297 11.72635,4.52754 19.83985,3.77344 21.3355,-1.9829 33.90391,-18.51602 32.38671,-42.60352 -1.0329,-16.3999 -8.313,-26.69359 -22.6914,-32.08789 -3.06315,-1.14922 -6.71821,-1.7825 -10.47461,-1.92383 z m 326.66408,1.01172 -0.1602,35.91406 c -0.087,19.7525 0.1333,37.0775 0.4903,38.5 0.6461,2.5741 0.6982,2.58594 11.041,2.58594 h 10.39261 v -38.5 -38.5 h -10.88291 z m -135.43557,14.43555 c 8.37957,-0.16527 16.19922,6.62008 16.19922,15.0332 v 2.53125 h -17 c -14.6029,0 -17,-0.21515 -17,-1.53125 0,-5.7823 7.17957,-13.63178 14.19727,-15.52148 1.19881,-0.32281 2.40643,-0.48811 3.60351,-0.51172 z m 210.08598,0.16015 c 1.7604,0.10113 3.1256,0.64768 5.1894,1.70313 5.3501,2.7359 7.9067,6.15426 8.6289,11.53906 l 0.5567,4.16211 h -17.1309 c -13.0504,0 -17.1262,-0.2978 -17.1094,-1.25 0.089,-5.0552 7.5232,-14.22899 12.3047,-15.18359 3.6441,-0.72755 5.8001,-1.07183 7.5606,-0.97071 z m -406.68363,2.62891 c 6.08092,0.11662 11.30995,2.94067 14.05664,8.13086 3.2722,6.183 3.14743,17.53045 -0.25977,23.59375 -1.375,2.4469 -3.85,5.2308 -5.5,6.1875 -3.544,2.0548 -11.75842,3.07182 -16.02148,1.98242 -1.66151,-0.4246 -4.24901,-1.57704 -5.75,-2.56054 l -2.72852,-1.78907 v -15.20703 -15.20703 l 4.68946,-2.34375 c 3.90991,-1.9527 7.86512,-2.85708 11.51367,-2.78711 z"
       inkscape:label="rect1"
       sodipodi:nodetypes="sssssscsccsssscccccccscsscccccccssssssccccccssccssssssssscssscccccssssccccccccccccsssccccccsssscccsccccccccccssccsscccccsscssssscccscssscssscccccs" />
    <path
       id="path2"
       style="display:inline;fill:#e0e0e0;stroke-width:1.61814"
       d="m 521.96051,401.37266 c -0.3991,0.0312 -2.24827,1.19791 -4.29328,2.71884 -5.92156,4.40395 -11.71304,7.05114 -24.67855,11.28029 -18.45533,6.01992 -24.69921,9.89613 -28.52865,17.71065 -1.95257,3.98451 -2.93792,10.0629 -2.02002,12.45934 0.49087,1.28158 0.72792,1.08559 3.16322,-2.61849 7.1655,-10.89873 20.83679,-17.42157 36.51672,-17.42157 3.17371,0 5.77095,0.25206 5.77095,0.56026 0,0.30825 -2.95871,1.25896 -6.5749,2.11199 -13.26892,3.12995 -19.50675,6.19271 -26.21357,12.87385 -5.95884,5.936 -9.65677,13.49713 -8.0693,16.49816 0.99224,1.87583 3.62963,5.26736 4.07944,5.24534 0.21237,-0.0104 1.32863,-1.26871 2.47992,-2.79648 2.63153,-3.49197 7.86726,-7.2272 15.33824,-10.94223 11.46387,-5.70053 20.61511,-12.11202 25.96033,-18.18728 5.7872,-6.57765 8.70928,-15.58117 7.93551,-24.45159 -0.22991,-2.63553 -0.59173,-4.89966 -0.80514,-5.03152 -0.0133,-0.008 -0.0343,-0.0116 -0.0609,-0.01 z m 7.38003,17.75963 c -0.12777,-0.002 -0.22079,0.0237 -0.27475,0.0777 -0.20916,0.20917 -0.37987,0.82046 -0.37987,1.35942 0,0.53895 -1.09502,3.15954 -2.43333,5.82351 -1.33831,2.66402 -2.37041,4.87202 -2.29357,4.90609 9.02767,4.00243 13.00825,6.947 15.96061,11.80709 1.22276,2.0129 2.38644,4.58718 2.58624,5.71959 l 0.36434,2.05824 -1.19457,-1.85875 c -2.83074,-4.40567 -10.0098,-9.39949 -17.32719,-12.05318 l -4.03047,-1.46095 -3.94446,3.7366 c -2.16963,2.05553 -5.37903,4.66642 -7.13157,5.80202 -1.75253,1.13559 -3.18591,2.26663 -3.18591,2.51336 0,0.24667 1.72018,0.63526 3.82262,0.86248 9.89501,1.06966 22.04805,5.39113 29.81639,10.60298 1.51375,1.01559 3.02751,1.77907 3.3639,1.69748 0.33639,-0.0816 1.62995,-1.89246 2.87532,-4.0245 6.69195,-11.45671 3.97708,-23.88024 -7.02644,-32.15177 -3.84925,-2.8935 -8.33217,-5.40092 -9.56729,-5.41736 z m 2.02001,41.84329 c -4.9e-4,1.1e-4 -0.003,0.001 -0.004,0.001 l -10e-4,10e-4 -10e-4,0.001 c -0.12303,0.0798 -0.22219,1.80673 -0.22219,3.90743 0,5.80848 -1.89583,11.24598 -5.20353,14.92492 -3.03296,3.37338 -7.33455,6.32316 -10.85145,7.44095 -3.53236,1.12275 -2.84343,2.04414 1.30447,1.74408 2.40799,-0.1742 4.91561,-0.90808 7.57952,-2.21951 7.41227,-3.6491 11.4853,-10.08472 11.94926,-18.88132 l 0.264,-5.00644 -2.28999,-0.95684 c -1.25949,-0.52624 -2.39461,-0.95685 -2.52172,-0.95685 h -10e-4 z m -45.6205,0.002 c -0.24088,0 -1.44137,0.47612 -2.66747,1.06077 l -2.22907,1.06316 0.26161,5.20593 c 0.32014,6.36382 1.714,9.76747 5.78171,14.1162 3.40855,3.64402 7.78391,6.05755 12.12843,6.69076 3.65009,0.53199 4.2885,0.44698 4.2885,-0.571 0,-0.42373 -1.00645,-1.11585 -2.23623,-1.5386 -5.93685,-2.04103 -11.13696,-6.60412 -13.51533,-11.85847 -1.00246,-2.21467 -1.30167,-4.1261 -1.33314,-8.51128 -0.0223,-3.11033 -0.23814,-5.65619 -0.47901,-5.65747 z m 59.22662,10.42902 c -0.44516,0.004 -0.68509,0.27679 -1.04047,0.72032 -0.91404,1.14085 -0.78573,1.38841 2.32224,4.49635 7.79981,7.79985 8.91644,18.34401 2.82635,26.67707 -5.34671,7.31587 -14.47418,11.58674 -43.01875,20.12726 -18.23124,5.45478 -28.30553,10.40327 -35.11668,17.24954 -5.77275,5.80249 -7.61105,12.86245 -5.06855,19.47025 2.15186,5.59252 10.82362,11.75092 21.22506,15.07543 7.84569,2.50758 8.38217,2.26441 4.36973,-1.9782 -5.75108,-6.08089 -5.41392,-11.15804 1.13006,-17.04169 3.78503,-3.40304 10.80699,-6.868 26.00334,-12.83085 24.71214,-9.69665 35.84233,-16.80903 42.76788,-27.3293 3.25091,-4.93832 4.9608,-9.51638 5.49023,-14.70034 1.14831,-11.24344 -4.35902,-20.36235 -16.48263,-27.29107 -3.35533,-1.91762 -4.66587,-2.65231 -5.40781,-2.64477 z m -75.591,9.58878 c -2.20406,0.0295 -7.64281,1.72439 -12.24909,3.94805 -6.49656,3.13619 -12.95146,9.28791 -15.60104,14.86997 -1.54789,3.26102 -1.74338,4.35086 -1.7596,9.78589 -0.0164,5.50377 0.15821,6.48364 1.74407,9.78589 2.32533,4.84206 7.5935,9.88427 13.62045,13.03631 5.10876,2.67179 6.76318,2.56412 4.09139,-0.26639 -3.0596,-3.24139 -6.40771,-9.00985 -7.70257,-13.27283 -1.04136,-3.42849 -1.22441,-5.25384 -0.97118,-9.69511 0.26851,-4.70928 0.62438,-6.10272 2.54801,-9.99494 2.79008,-5.64535 7.11251,-10.42648 12.79262,-14.14964 2.41297,-1.58165 4.48368,-2.9464 4.60147,-3.03301 0.11778,-0.0865 0.0478,-0.42634 -0.15529,-0.75497 -0.11403,-0.1845 -0.45061,-0.26602 -0.95924,-0.25922 z"
       inkscape:label="rect1"
       sodipodi:nodetypes="cccsccsscscscscssccccsccsccccccsscsscccccccsscsccccsccccccssscssccscssssccscssscscscscssssscssc" />
  </g>
</svg>
